<svg aria-hidden="true" style="position: absolute; width: 0; height: 0; overflow: hidden;" version="1.1" xmlns="http://www.w3.org/2000/svg" xmlns:xlink="http://www.w3.org/1999/xlink">
<defs>
<symbol id="icon-ce" viewBox="0 0 75 32">
<path d="M19.849 20.32l-1.444 2.215 0.029 0.018 1.415-2.234zM35.394 21.069l2.644-0.059-0.068-3.060-3.018 0.512 0.442 2.607zM35.575 29.203l0.673 2.557 2.017-0.531-0.047-2.085-2.643 0.059zM15.175 29.59l0.593-2.577-0.016-0.004-0.577 2.58zM5.104 25.097l1.711-2.016-0.004-0.003-1.707 2.020zM1.464 16.834l2.644 0.013v-0.013h-2.644zM2.729 11.050l-2.373-1.167-0.002 0.003 2.374 1.163zM10.837 4.129l0.938 2.472 0.010-0.004-0.948-2.468zM36.814 3.458l2.636 0.205 0.174-2.233-2.174-0.539-0.636 2.566zM36.169 11.747l-0.492 2.598 2.9 0.55 0.229-2.942-2.636-0.205zM29.119 8.354c-3.968 0-7.304 0.424-9.741 1.495-1.249 0.549-2.385 1.322-3.212 2.413-0.853 1.125-1.26 2.437-1.26 3.823h5.288c0-0.31 0.075-0.482 0.186-0.628 0.137-0.181 0.447-0.468 1.126-0.767 1.419-0.624 3.868-1.048 7.612-1.048v-5.288zM14.907 16.085c0 2.721 1.22 4.965 3.499 6.45l2.887-4.431c-0.785-0.512-1.098-1.091-1.098-2.020h-5.288zM18.434 22.554c2.161 1.368 5.009 1.882 8.206 1.882v-5.288c-2.76 0-4.438-0.467-5.376-1.062l-2.83 4.468zM26.64 24.436c3.138 0 6.204-0.253 9.196-0.76l-0.885-5.214c-2.689 0.456-5.458 0.686-8.311 0.686v5.288zM32.75 21.127l0.181 8.134 5.287-0.117-0.181-8.134-5.287 0.117zM34.902 26.645c-3.023 0.796-6.357 1.204-10.017 1.204v5.288c4.052 0 7.845-0.452 11.363-1.378l-1.346-5.114zM24.884 27.849c-3.735 0-6.758-0.293-9.116-0.836l-1.187 5.153c2.875 0.662 6.325 0.971 10.302 0.971v-5.288zM15.752 27.009c-2.524-0.565-4.347-1.164-5.563-1.758l-2.321 4.752c1.745 0.852 4.019 1.561 6.729 2.167l1.154-5.161zM10.19 25.251c-1.303-0.637-2.423-1.363-3.375-2.171l-3.421 4.032c1.321 1.12 2.818 2.081 4.475 2.89l2.321-4.752zM6.811 23.077c-1.797-1.518-2.717-3.503-2.703-6.23l-5.288-0.026c-0.021 4.158 1.486 7.683 4.578 10.296l3.413-4.039zM4.108 16.834c0-1.778 0.349-3.301 0.996-4.621l-4.749-2.327c-1.040 2.123-1.535 4.456-1.535 6.948h5.288zM5.102 12.216c1.203-2.446 3.327-4.345 6.673-5.615l-1.876-4.944c-4.366 1.657-7.647 4.371-9.543 8.226l4.746 2.334zM11.785 6.598c3.518-1.351 7.444-2.045 11.808-2.045v-5.288c-4.932 0-9.51 0.786-13.704 2.396l1.895 4.937zM23.593 4.553c4.451 0 8.643 0.494 12.585 1.472l1.273-5.133c-4.391-1.089-9.012-1.627-13.857-1.627v5.288zM34.178 3.253l-0.646 8.289 5.272 0.411 0.646-8.289-5.272-0.411zM36.661 9.149c-2.751-0.521-5.271-0.795-7.542-0.795v5.288c1.86 0 4.040 0.226 6.557 0.703l0.985-5.196zM62.46 13.374l-0.015 2.644 2.687 0.015-0.028-2.687-2.644 0.028zM61.324 9.939l-1.799 1.938 0.023 0.021 1.776-1.959zM54.74 10.197l1.831 1.908 0.020-0.019-1.851-1.889zM53.139 13.322l-2.609-0.429-0.502 3.056 3.097 0.017 0.015-2.644zM72.583 27.421l1.597 2.107 0.95-0.721 0.089-1.189-2.637-0.197zM66.876 29.538l-0.569-2.582-0.015 0.003 0.584 2.579zM47.045 28.815l-0.902 2.486 0.022 0.008 0.88-2.493zM42.526 26.414l-1.641 2.073 0.032 0.025 1.609-2.098zM39.505 22.618l-2.37 1.172 0.005 0.010 2.365-1.183zM42.603 6.582l1.758 1.975 0.001-0.001-1.76-1.974zM66.773 3.716l1.057-2.424-0.025-0.011-1.033 2.434zM72.841 9.294l-2.378 1.156 0.007 0.015 2.371-1.171zM73.874 13.916l2.638 0.192 0.007-0.096v-0.096h-2.644zM73.564 18.176l-0.013 2.644 2.471 0.012 0.179-2.465-2.637-0.192zM52.622 18.073l0.013-2.644-3.45-0.017 0.88 3.335 2.557-0.674zM55.618 21.766l-1.301 2.302 0.011 0.006 1.291-2.308zM71.679 20.862v-2.644h-0.528l-0.488 0.203 1.016 2.441zM73.073 20.862l2.637 0.197 0.213-2.841h-2.849v2.644zM65.105 13.345c-0.021-1.913-0.46-3.965-2.004-5.365l-3.553 3.917c-0.031-0.028 0.029 0.005 0.105 0.234 0.080 0.242 0.156 0.646 0.163 1.27l5.288-0.056zM63.124 8.002c-1.388-1.289-3.208-1.714-5.001-1.714v5.288c1.030 0 1.344 0.246 1.403 0.3l3.598-3.875zM58.122 6.288c-1.969 0-3.801 0.617-5.233 2.021l3.702 3.777c0.289-0.283 0.712-0.51 1.532-0.51v-5.288zM52.908 8.29c-1.302 1.25-2.086 2.823-2.379 4.603l5.218 0.858c0.121-0.733 0.403-1.243 0.823-1.646l-3.663-3.815zM53.124 15.966l9.322 0.052 0.029-5.288-9.322-0.052-0.029 5.288zM70.986 25.314c-0.58 0.439-1.994 1.051-4.678 1.642l1.137 5.165c2.79-0.614 5.18-1.414 6.736-2.593l-3.195-4.214zM66.292 26.959c-2.562 0.58-5.025 0.864-7.395 0.864v5.288c2.795 0 5.651-0.335 8.563-0.995l-1.168-5.158zM58.897 27.824c-2.492 0-4.544-0.118-6.18-0.338l-0.705 5.241c1.945 0.262 4.247 0.385 6.886 0.385v-5.288zM52.717 27.486c-1.605-0.216-3.202-0.603-4.792-1.164l-1.76 4.987c1.922 0.678 3.871 1.152 5.847 1.418l0.705-5.241zM47.946 26.329c-1.546-0.561-2.804-1.241-3.811-2.014l-3.219 4.196c1.506 1.155 3.26 2.076 5.226 2.789l1.803-4.971zM44.167 24.341c-0.908-0.719-1.679-1.669-2.297-2.905l-4.73 2.365c0.931 1.862 2.174 3.443 3.745 4.686l3.282-4.146zM41.875 21.446c-0.556-1.125-0.888-2.573-0.888-4.431h-5.289c0 2.48 0.443 4.767 1.436 6.775l4.74-2.344zM40.987 17.014c0-1.86 0.335-3.503 0.969-4.964l-4.851-2.105c-0.95 2.189-1.407 4.557-1.407 7.069h5.289zM41.956 12.051c0.666-1.536 1.483-2.672 2.405-3.493l-3.516-3.95c-1.591 1.417-2.823 3.224-3.74 5.338l4.851 2.105zM44.363 8.556c2.842-2.534 7.177-4.003 13.424-4.003v-5.288c-7.008 0-12.796 1.646-16.943 5.344l3.519 3.947zM57.787 4.553c2.803 0 5.447 0.534 7.953 1.598l2.065-4.868c-3.174-1.347-6.521-2.018-10.019-2.018v5.288zM65.715 6.14c2.34 1.021 3.852 2.468 4.748 4.31l4.756-2.312c-1.515-3.116-4.048-5.387-7.389-6.845l-2.115 4.847zM70.47 10.464c0.494 1 0.76 2.135 0.76 3.451h5.288c0-2.058-0.423-4.004-1.306-5.793l-4.742 2.342zM71.237 13.724l-0.31 4.261 5.274 0.384 0.31-4.261-5.275-0.384zM73.577 15.532l-20.942-0.103-0.026 5.288 20.941 0.103 0.026-5.288zM50.065 18.747c0.618 2.344 2.13 4.121 4.251 5.32l2.602-4.604c-1.046-0.591-1.531-1.276-1.74-2.065l-5.114 1.349zM54.327 24.074c2.145 1.199 4.827 1.679 7.824 1.679v-5.288c-2.512 0-4.185-0.415-5.243-1.006l-2.581 4.616zM62.151 25.753c3.216 0 6.748-0.869 10.544-2.45l-2.032-4.882c-3.399 1.415-6.219 2.043-8.512 2.043v5.288zM71.679 23.506h1.394v-5.288h-1.394v5.288zM70.437 20.665l-0.491 6.559 5.274 0.395 0.491-6.559-5.274-0.395z"></path>
</symbol>
</defs>
</svg>
